<?xml version="1.0" encoding="UTF-8"?>
<svg id="Calque_2" data-name="Calque 2" xmlns="http://www.w3.org/2000/svg" xmlns:xlink="http://www.w3.org/1999/xlink" viewBox="0 0 425.2 425.2">
  <defs>
    <style>
      .cls-1 {
        fill: #1d1d1b;
      }

      .cls-2 {
        fill: url(#Dégradé_sans_nom_56);
      }

      .cls-3 {
        fill: none;
        stroke: #1d1d1b;
        stroke-linecap: round;
        stroke-miterlimit: 10;
        stroke-width: 2px;
      }
    </style>
    <linearGradient id="Dégradé_sans_nom_56" data-name="Dégradé sans nom 56" x1="245.42" y1="168.15" x2="168.34" y2="301.66" gradientUnits="userSpaceOnUse">
      <stop offset="0" stop-color="#57c2e0"/>
      <stop offset="1" stop-color="#2a368c"/>
    </linearGradient>
  </defs>
  <g id="V1">
    <path class="cls-1" d="M217.4,198.3v-47.95h-12.01v53.95c0,1.65,.59,3.06,1.77,4.23,1.17,1.19,2.59,1.77,4.23,1.77h43.96v-12.01h-37.96Z"/>
    <path class="cls-1" d="M317.28,159.29c-1.63-2.71-3.79-4.88-6.53-6.5-2.73-1.63-5.75-2.44-9.04-2.44h-37.96v12.01h37.96c1.65,0,3.06,.58,4.23,1.74,1.17,1.16,1.77,2.57,1.77,4.22v4.03c0,1.65-.6,3.06-1.77,4.22-.23,.23-.46,.43-.71,.6-1.02,.76-2.19,1.14-3.52,1.14h-37.96v32h12v-19.99h25.96c2.72,0,5.25-.54,7.59-1.66,.5-.23,.98-.49,1.46-.77,2.73-1.63,4.9-3.79,6.53-6.51,1.63-2.71,2.44-5.72,2.44-9.02v-4.03c0-3.31-.81-6.31-2.44-9.03Z"/>
    <path class="cls-1" d="M328.12,150.35v59.81h12v-59.81h-12Z"/>
    <g>
      <polyline class="cls-3" points="30.95 209.35 30.95 107.39 205.39 107.39"/>
      <polyline class="cls-3" points="388.76 140.15 388.76 282.89 226.19 282.89"/>
    </g>
    <path class="cls-2" d="M102.58,222.97v21.47c0,.51-.14,.96-.42,1.37-.28,.41-.65,.7-1.14,.88-.27,.1-.54,.15-.81,.15-.72-.01-1.33-.28-1.82-.84l-12.1-14.17v15h-4.79v-21.47c0-.51,.15-.96,.43-1.37s.67-.7,1.13-.87c1.03-.33,1.91-.1,2.64,.68l12.11,14.18v-15.02h4.76Zm8.13,7.16v2.38h10.32v4.79h-10.32v9.54h-4.79v-16.71c0-1.32,.33-2.52,.97-3.59,.64-1.08,1.51-1.95,2.6-2.6,1.07-.64,2.27-.97,3.59-.97h13.13v4.79h-13.13c-.65,0-1.22,.23-1.68,.69-.46,.46-.69,1.03-.69,1.68Zm41.52,0v9.56c0,1.31-.32,2.51-.97,3.59-.64,1.08-1.51,1.94-2.6,2.59-1.08,.65-2.28,.97-3.6,.97h-8.35c-1.31,0-2.52-.32-3.59-.97-1.08-.64-1.95-1.5-2.6-2.59-.64-1.08-.97-2.28-.97-3.59v-9.56c0-1.32,.33-2.52,.97-3.59,.64-1.08,1.51-1.95,2.6-2.6,1.07-.64,2.28-.97,3.59-.97h8.35c1.32,0,2.52,.33,3.6,.97,1.08,.64,1.95,1.51,2.6,2.6,.65,1.07,.97,2.27,.97,3.59Zm-4.78,0c0-.65-.24-1.22-.7-1.68-.47-.46-1.04-.69-1.69-.69h-8.35c-.65,0-1.22,.23-1.68,.69-.46,.46-.69,1.03-.69,1.68v9.56c0,.65,.23,1.21,.69,1.67,.46,.46,1.03,.7,1.68,.7h8.35c.65,0,1.22-.24,1.69-.7,.46-.46,.7-1.02,.7-1.67v-9.56Zm25.99,8.21l4.12,8.5h-5.3l-3.87-7.96h-8.04v7.96h-4.79v-16.71c0-1.32,.33-2.52,.97-3.59,.64-1.08,1.51-1.95,2.6-2.6,1.07-.64,2.27-.97,3.59-.97h7.96c1.31,0,2.51,.33,3.6,.97,1.08,.64,1.94,1.51,2.6,2.6,.64,1.07,.97,2.27,.97,3.59v1.6c0,1.48-.41,2.81-1.22,4-.82,1.17-1.89,2.04-3.2,2.61Zm-.37-8.21c0-.65-.24-1.22-.7-1.68-.46-.46-1.03-.69-1.68-.69h-7.96c-.65,0-1.22,.23-1.68,.69s-.69,1.03-.69,1.68v3.97h10.33c.65,0,1.22-.23,1.68-.69s.7-1.03,.7-1.68v-1.6Zm37.96-4.76v21.47h-4.78v-13.6l-8.37,12.53c-.47,.7-1.13,1.05-1.96,1.07h-.02c-.85-.03-1.5-.4-1.99-1.08l-7.94-12.31v13.39h-4.78v-21.47c0-.53,.15-1.02,.46-1.43s.72-.7,1.24-.86c1.11-.27,2.01,.07,2.69,.98l10.34,16.05,10.71-16.07c.68-.91,1.57-1.24,2.68-.97,.51,.17,.93,.46,1.24,.88,.3,.42,.46,.89,.46,1.41Zm27.69,21.47h-5.22l-1.78-3.97h-10.35l-1.77,3.97h-5.23l9.99-22.42c.2-.44,.5-.79,.89-1.04,.38-.26,.82-.38,1.3-.38s.9,.12,1.29,.38c.4,.25,.69,.6,.89,1.04l9.99,22.42Zm-9.12-8.76l-3.05-6.83-3.06,6.83h6.11Zm26.86-15.11v4.79h-8.16v19.08h-4.76v-19.08h-8.15v-4.79h21.08Zm8.12,0v23.87h-4.78v-23.87h4.78Zm26.02,7.17v9.55c0,1.42-.37,2.71-1.13,3.85s-1.74,2.01-2.95,2.61l1.82,4.03h-5.33l-1.52-3.34h-6.41c-1.32,0-2.52-.32-3.6-.96-1.07-.64-1.94-1.5-2.59-2.59-.64-1.1-.97-2.29-.97-3.6v-9.55c0-1.31,.33-2.52,.97-3.6,.64-1.08,1.51-1.94,2.59-2.59,1.08-.64,2.28-.96,3.6-.96h8.35c1.31,0,2.52,.32,3.6,.96,1.08,.64,1.95,1.5,2.6,2.59,.64,1.08,.97,2.29,.97,3.6Zm-4.78,0c0-.65-.24-1.22-.71-1.68-.46-.47-1.03-.7-1.68-.7h-8.35c-.67,0-1.22,.23-1.68,.7-.46,.46-.7,1.03-.7,1.68v9.55c0,.65,.24,1.22,.7,1.68,.46,.47,1.02,.7,1.68,.7h4.25l-1.45-3.17h5.34l1.32,2.91c.86-.51,1.29-1.21,1.29-2.12v-9.55Zm30.52-7.17v14.33c0,2.55-.94,4.8-2.8,6.75-1.94,1.86-4.2,2.79-6.75,2.79h-3.31c-2.55,0-4.8-.93-6.75-2.79-1.86-1.95-2.79-4.2-2.79-6.75v-14.33h4.78v14.33c0,1.31,.47,2.44,1.4,3.36,.93,.94,2.05,1.4,3.36,1.4h3.31c1.32,0,2.44-.46,3.38-1.4,.93-.93,1.39-2.05,1.39-3.36v-14.33h4.79Zm8.82,5.48c-.46,.46-.7,1.03-.7,1.68s.24,1.23,.7,1.69c.45,.46,1.02,.69,1.67,.69h11.15v4.79h-11.15c-.65,0-1.22,.24-1.67,.7-.46,.46-.7,1.03-.7,1.69s.24,1.21,.7,1.67c.45,.46,1.02,.7,1.67,.7h13.54v4.78h-13.54c-1.31,0-2.51-.32-3.59-.97-1.08-.64-1.94-1.5-2.59-2.59-.65-1.08-.97-2.28-.97-3.59,0-.93,.16-1.8,.49-2.61,.32-.81,.77-1.55,1.33-2.18-.56-.63-1.02-1.35-1.33-2.17-.33-.81-.49-1.68-.49-2.61,0-1.32,.32-2.52,.97-3.59,.64-1.08,1.5-1.95,2.59-2.6,1.08-.64,2.28-.97,3.59-.97h13.54v4.79h-13.54c-.65,0-1.22,.23-1.67,.69Zm-251.78-5.48v23.87h4.78v-23.87h-4.78Z"/>
    <path class="cls-1" d="M133.87,210.34l-25.11-56.35c-.51-1.1-1.24-1.96-2.22-2.61s-2.05-.96-3.24-.96c-.12,0-.25,0-.36,.01-1.06,.06-2.03,.37-2.91,.95-.97,.64-1.72,1.51-2.22,2.61l-25.11,56.35h13.14l17.47-39.18,1.32,2.97,5.45,12.22h-6.53l-5.29,11.86h17.11l5.41,12.13h13.11Z"/>
    <path class="cls-1" d="M198,210.31l-25.11-56.35c-.51-1.1-1.24-1.96-2.22-2.61s-2.05-.96-3.24-.96c-.12,0-.25,0-.36,.01-1.06,.06-2.03,.37-2.91,.95-.97,.64-1.72,1.51-2.22,2.61l-25.11,56.35h13.14l17.47-39.18,1.32,2.97,5.45,12.22h-6.53l-5.29,11.86h17.11l5.41,12.13h13.11Z"/>
  </g>
</svg>